<?xml version="1.0" encoding="UTF-8"?><svg version="1.1" width="104px" height="20px" viewBox="0 0 104.0 20.0" xmlns="http://www.w3.org/2000/svg" xmlns:xlink="http://www.w3.org/1999/xlink"><defs><clipPath id="i0"><path d="M3.80116959,0 C5.90049759,0 7.60233918,1.68314004 7.60233918,3.7593985 C7.60233918,5.83565695 5.90049759,7.51879699 3.80116959,7.51879699 C1.70184159,7.51879699 0,5.83565695 0,3.7593985 C0,1.68314004 1.70184159,0 3.80116959,0 Z"></path></clipPath><clipPath id="i1"><path d="M3.80116959,0 C5.90049759,0 7.60233918,1.68314004 7.60233918,3.7593985 C7.60233918,5.83565695 5.90049759,7.51879699 3.80116959,7.51879699 C1.70184159,7.51879699 0,5.83565695 0,3.7593985 C0,1.68314004 1.70184159,0 3.80116959,0 Z"></path></clipPath><clipPath id="i2"><path d="M7.4502924,0 L7.4502924,3.58498987 C7.4502924,5.67452122 5.75639256,7.36842105 3.66686122,7.36842105 L0,7.36842105 L0,0 L7.4502924,0 Z"></path></clipPath><clipPath id="i3"><path d="M7.4502924,0 L7.4502924,7.36842105 L0,7.36842105 L0,3.78343118 C-6.99982997e-16,1.69389984 1.69389984,-6.02485292e-17 3.78343118,0 L7.4502924,0 Z"></path></clipPath><clipPath id="i4"><path d="M3.11569988,0 L3.11569988,6.30139178 L3.22096001,6.30139178 C3.37534153,5.69135605 3.72971731,5.19223591 4.28408733,4.80403135 C4.83845736,4.4158268 5.47352681,4.22172452 6.1892957,4.22172452 C7.59276412,4.22172452 8.65238277,4.70698022 9.36815166,5.6774916 C10.0839206,6.64800299 10.441805,8.06217672 10.441805,9.9200128 C10.441805,11.7778489 10.0839206,13.1954887 9.36815166,14.1729323 C8.65238277,15.1503759 7.59276412,15.6390977 6.1892957,15.6390977 C5.82439392,15.6390977 5.48054415,15.5871061 5.15774642,15.4831227 C4.83494868,15.3791393 4.54372899,15.2335626 4.28408733,15.0463926 C4.02444568,14.8592225 3.8033994,14.6373914 3.62094851,14.3808991 C3.43849761,14.1244068 3.30516811,13.8505839 3.22096001,13.5594305 L3.11569988,13.5594305 L3.11569988,15.3895377 L0,15.3895377 L0,0 L3.11569988,0 Z M5.15774642,6.71732523 C4.56828969,6.71732523 4.08058441,6.85943582 3.6946306,7.14365701 C3.30867678,7.42787821 3.11569988,7.81954887 3.11569988,8.31866901 L3.11569988,11.5421533 C3.11569988,12.0412734 3.30867678,12.4329441 3.6946306,12.7171653 C4.08058441,13.0013864 4.56828969,13.143497 5.15774642,13.143497 C5.74720315,13.143497 6.23490843,12.9389964 6.62086224,12.5299952 C7.00681605,12.120994 7.19979296,11.5698822 7.19979296,10.8766597 L7.19979296,8.98416253 C7.19979296,8.29094012 7.00681605,7.73982829 6.62086224,7.33082707 C6.23490843,6.92182584 5.74720315,6.71732523 5.15774642,6.71732523 Z"></path></clipPath><clipPath id="i5"><path d="M5.17879845,0 C5.99281013,0 6.71910503,0.131712259 7.35768316,0.395136778 C7.99626129,0.658561297 8.53659662,1.03636751 8.97868917,1.52855543 C9.42078172,2.02074335 9.76112282,2.62038074 9.99971245,3.32746761 C10.2383021,4.03455447 10.3575969,4.82482803 10.3575969,5.69828827 C10.3575969,6.57174852 10.2383021,7.36202208 9.99971245,8.06910894 C9.76112282,8.77619581 9.42078172,9.37929931 8.97868917,9.87841945 C8.53659662,10.3775396 7.99626129,10.7588119 7.35768316,11.0222364 C6.71910503,11.285661 5.99281013,11.4173732 5.17879845,11.4173732 C4.36478677,11.4173732 3.63849186,11.285661 2.99991373,11.0222364 C2.36133561,10.7588119 1.82100027,10.3775396 1.37890772,9.87841945 C0.936815166,9.37929931 0.596474076,8.77619581 0.357884445,8.06910894 C0.119294815,7.36202208 0,6.57174852 0,5.69828827 C0,4.82482803 0.119294815,4.03455447 0.357884445,3.32746761 C0.596474076,2.62038074 0.936815166,2.02074335 1.37890772,1.52855543 C1.82100027,1.03636751 2.36133561,0.658561297 2.99991373,0.395136778 C3.63849186,0.131712259 4.36478677,0 5.17879845,0 Z M5.17879845,2.43321069 C4.56127234,2.43321069 4.08409308,2.62038074 3.74726066,2.99472084 C3.41042824,3.36906095 3.24201203,3.90284221 3.24201203,4.59606463 L3.24201203,6.82130859 C3.24201203,7.51453101 3.41042824,8.04831227 3.74726066,8.42265238 C4.08409308,8.79699248 4.56127234,8.98416253 5.17879845,8.98416253 C5.79632455,8.98416253 6.27350381,8.79699248 6.61033623,8.42265238 C6.94716865,8.04831227 7.11558486,7.51453101 7.11558486,6.82130859 L7.11558486,4.59606463 C7.11558486,3.90284221 6.94716865,3.36906095 6.61033623,2.99472084 C6.27350381,2.62038074 5.79632455,2.43321069 5.17879845,2.43321069 Z"></path></clipPath><clipPath id="i6"><path d="M3.11569988,0 L3.11569988,12.9979203 L4.50513361,12.9979203 L4.50513361,15.3895377 L3.09464785,15.3895377 C2.02801186,15.3895377 1.24557822,15.1330454 0.74734693,14.6200608 C0.249115643,14.1070762 0,13.3653282 0,12.3948168 L0,0 L3.11569988,0 Z"></path></clipPath><clipPath id="i7"><path d="M10.441805,0 L10.441805,15.3895377 L7.32610512,15.3895377 L7.32610512,13.5594305 L7.22084499,13.5594305 C7.13663688,13.8505839 7.00330738,14.1244068 6.82085649,14.3808991 C6.6384056,14.6373914 6.41735932,14.8592225 6.15771766,15.0463926 C5.89807601,15.2335626 5.60334764,15.3791393 5.27353256,15.4831227 C4.94371749,15.5871061 4.6033764,15.6390977 4.25250929,15.6390977 C2.84904088,15.6390977 1.78942223,15.1503759 1.07365334,14.1729323 C0.357884445,13.1954887 0,11.7778489 0,9.9200128 C0,8.06217672 0.357884445,6.64800299 1.07365334,5.6774916 C1.78942223,4.70698022 2.84904088,4.22172452 4.25250929,4.22172452 C4.96827818,4.22172452 5.60334764,4.4158268 6.15771766,4.80403135 C6.71208769,5.19223591 7.06646346,5.69135605 7.22084499,6.30139178 L7.32610512,6.30139178 L7.32610512,0 L10.441805,0 Z M5.28405858,6.71732523 C4.69460184,6.71732523 4.20689657,6.92182584 3.82094276,7.33082707 C3.43498894,7.73982829 3.24201203,8.29094012 3.24201203,8.98416253 L3.24201203,10.8766597 C3.24201203,11.5698822 3.43498894,12.120994 3.82094276,12.5299952 C4.20689657,12.9389964 4.69460184,13.143497 5.28405858,13.143497 C5.87351531,13.143497 6.36122058,13.0013864 6.7471744,12.7171653 C7.13312821,12.4329441 7.32610512,12.0412734 7.32610512,11.5421533 L7.32610512,8.31866901 C7.32610512,7.81954887 7.13312821,7.42787821 6.7471744,7.14365701 C6.36122058,6.85943582 5.87351531,6.71732523 5.28405858,6.71732523 Z"></path></clipPath><clipPath id="i8"><path d="M6.1892957,0 C7.59276412,0 8.65238277,0.485255692 9.36815166,1.45576708 C10.0839206,2.42627846 10.441805,3.84045219 10.441805,5.69828827 C10.441805,7.55612435 10.0839206,8.9737642 9.36815166,9.95120781 C8.65238277,10.9286514 7.59276412,11.4173732 6.1892957,11.4173732 C5.82439392,11.4173732 5.48054415,11.3653815 5.15774642,11.2613982 C4.83494868,11.1574148 4.54372899,11.0118381 4.28408733,10.8246681 C4.02444568,10.637498 3.8033994,10.4156668 3.62094851,10.1591745 C3.43849761,9.90268224 3.30516811,9.62885938 3.22096001,9.33770597 L3.11569988,9.33770597 L3.11569988,15.3271477 L0,15.3271477 L0,0.24956007 L3.11569988,0.24956007 L3.11569988,2.07966725 L3.22096001,2.07966725 C3.37534153,1.46963153 3.72971731,0.970511385 4.28408733,0.582306831 C4.83845736,0.194102277 5.47352681,0 6.1892957,0 Z M5.15774642,2.4956007 C4.56828969,2.4956007 4.08058441,2.6377113 3.6946306,2.92193249 C3.30867678,3.20615368 3.11569988,3.59782435 3.11569988,4.09694449 L3.11569988,7.32042873 C3.11569988,7.81954887 3.30867678,8.21121954 3.6946306,8.49544073 C4.08058441,8.77966192 4.56828969,8.92177252 5.15774642,8.92177252 C5.74720315,8.92177252 6.23490843,8.7172719 6.62086224,8.30827068 C7.00681605,7.89926945 7.19979296,7.34815763 7.19979296,6.65493521 L7.19979296,4.76243801 C7.19979296,4.06921559 7.00681605,3.51810377 6.62086224,3.10910254 C6.23490843,2.70010132 5.74720315,2.4956007 5.15774642,2.4956007 Z"></path></clipPath><clipPath id="i9"><path d="M3.11569988,0 L3.11569988,2.37082067 L3.22096001,2.37082067 C3.27709875,2.0658028 3.37534153,1.77118328 3.51568838,1.48696209 C3.65603522,1.20274089 3.84199478,0.949714712 4.07356707,0.727883539 C4.30513936,0.506052365 4.58232437,0.329280648 4.9051221,0.197568389 C5.22791984,0.0658561297 5.60685631,0 6.04193152,0 L6.5892842,0 L6.5892842,2.86994081 L5.81035923,2.86994081 C4.89810476,2.86994081 4.22093125,2.98778862 3.7788387,3.22348424 C3.33674615,3.45917986 3.11569988,3.89590999 3.11569988,4.53367461 L3.11569988,10.9182531 L0,10.9182531 L0,0 L3.11569988,0 Z"></path></clipPath><clipPath id="i10"><path d="M5.17879845,0 C5.99281013,0 6.71910503,0.131712259 7.35768316,0.395136778 C7.99626129,0.658561297 8.53659662,1.03636751 8.97868917,1.52855543 C9.42078172,2.02074335 9.76112282,2.62038074 9.99971245,3.32746761 C10.2383021,4.03455447 10.3575969,4.82482803 10.3575969,5.69828827 C10.3575969,6.57174852 10.2383021,7.36202208 9.99971245,8.06910894 C9.76112282,8.77619581 9.42078172,9.37929931 8.97868917,9.87841945 C8.53659662,10.3775396 7.99626129,10.7588119 7.35768316,11.0222364 C6.71910503,11.285661 5.99281013,11.4173732 5.17879845,11.4173732 C4.36478677,11.4173732 3.63849186,11.285661 2.99991373,11.0222364 C2.36133561,10.7588119 1.82100027,10.3775396 1.37890772,9.87841945 C0.936815166,9.37929931 0.596474076,8.77619581 0.357884445,8.06910894 C0.119294815,7.36202208 0,6.57174852 0,5.69828827 C0,4.82482803 0.119294815,4.03455447 0.357884445,3.32746761 C0.596474076,2.62038074 0.936815166,2.02074335 1.37890772,1.52855543 C1.82100027,1.03636751 2.36133561,0.658561297 2.99991373,0.395136778 C3.63849186,0.131712259 4.36478677,0 5.17879845,0 Z M5.17879845,2.43321069 C4.56127234,2.43321069 4.08409308,2.62038074 3.74726066,2.99472084 C3.41042824,3.36906095 3.24201203,3.90284221 3.24201203,4.59606463 L3.24201203,6.82130859 C3.24201203,7.51453101 3.41042824,8.04831227 3.74726066,8.42265238 C4.08409308,8.79699248 4.56127234,8.98416253 5.17879845,8.98416253 C5.79632455,8.98416253 6.27350381,8.79699248 6.61033623,8.42265238 C6.94716865,8.04831227 7.11558486,7.51453101 7.11558486,6.82130859 L7.11558486,4.59606463 C7.11558486,3.90284221 6.94716865,3.36906095 6.61033623,2.99472084 C6.27350381,2.62038074 5.79632455,2.43321069 5.17879845,2.43321069 Z"></path></clipPath><clipPath id="i11"><path d="M1.85257831,0 C2.48413909,0 2.95079234,0.155975044 3.25253805,0.467925132 C3.55428376,0.77987522 3.70515661,1.17847811 3.70515661,1.6637338 L3.70515661,2.07966725 C3.70515661,2.56492295 3.55428376,2.96352584 3.25253805,3.27547592 C2.95079234,3.58742601 2.48413909,3.74340106 1.85257831,3.74340106 C1.22101752,3.74340106 0.754364272,3.58742601 0.452618563,3.27547592 C0.150872854,2.96352584 0,2.56492295 0,2.07966725 L0,1.6637338 C0,1.17847811 0.150872854,0.77987522 0.452618563,0.467925132 C0.754364272,0.155975044 1.22101752,0 1.85257831,0 Z"></path></clipPath></defs><g transform="translate(8.970760233918153 0.0)"><g clip-path="url(#i0)"><polygon points="0,0 7.60233918,0 7.60233918,7.51879699 0,7.51879699 0,0" stroke="none" fill="#FFFFFF"></polygon></g></g><g transform="translate(0.0 9.022556390977464)"><g clip-path="url(#i1)"><polygon points="0,0 7.60233918,0 7.60233918,7.51879699 0,7.51879699 0,0" stroke="none" fill="#FFFFFF"></polygon></g></g><g transform="translate(9.122807017543893 9.172932330826935)"><g clip-path="url(#i2)"><polygon points="0,0 7.4502924,0 7.4502924,7.36842105 0,7.36842105 0,0" stroke="none" fill="#FFFFFF"></polygon></g></g><g clip-path="url(#i3)"><polygon points="0,0 7.4502924,0 7.4502924,7.36842105 0,7.36842105 0,0" stroke="none" fill="#FFFFFF"></polygon></g><g transform="translate(22.6549707602339 0.4511278195489057)"><g clip-path="url(#i4)"><polygon points="0,0 10.441805,0 10.441805,15.6390977 0,15.6390977 0,0" stroke="none" fill="#FFFFFF"></polygon></g></g><g transform="translate(34.75988582567531 4.672852343625001)"><g clip-path="url(#i5)"><polygon points="0,0 10.3575969,0 10.3575969,11.4173732 0,11.4173732 0,0" stroke="none" fill="#FFFFFF"></polygon></g></g><g transform="translate(47.32794546753364 0.4511278195489057)"><g clip-path="url(#i6)"><polygon points="0,0 4.50513361,0 4.50513361,15.3895377 0,15.3895377 0,0" stroke="none" fill="#FFFFFF"></polygon></g></g><g transform="translate(53.15935672514621 0.4511278195489057)"><g clip-path="url(#i7)"><polygon points="0,0 10.441805,0 10.441805,15.6390977 0,15.6390977 0,0" stroke="none" fill="#FFFFFF"></polygon></g></g><g transform="translate(73.03246945867079 4.672852343625001)"><g clip-path="url(#i8)"><polygon points="0,0 10.441805,0 10.441805,15.3271477 0,15.3271477 0,0" stroke="none" fill="#FFFFFF"></polygon></g></g><g transform="translate(85.83210138873753 4.922412414013691)"><g clip-path="url(#i9)"><polygon points="0,0 6.5892842,0 6.5892842,10.9182531 0,10.9182531 0,0" stroke="none" fill="#FFFFFF"></polygon></g></g><g transform="translate(93.64240310922233 4.672852343625001)"><g clip-path="url(#i10)"><polygon points="0,0 10.3575969,0 10.3575969,11.4173732 0,11.4173732 0,0" stroke="none" fill="#FFFFFF"></polygon></g></g><g transform="translate(66.46423728403143 12.17565189569689)"><g clip-path="url(#i11)"><polygon points="0,0 3.70515661,0 3.70515661,3.74340106 0,3.74340106 0,0" stroke="none" fill="#FFFFFF"></polygon></g></g></svg>