<svg height="28" viewBox="0 0 145 28" width="145" xmlns="http://www.w3.org/2000/svg" xmlns:xlink="http://www.w3.org/1999/xlink"><clipPath id="a"><path d="m367 0v266h-367v-266z"/></clipPath><clipPath id="b"><path d="m5.2997076 0c2.92694769 0 5.2997076 2.35639605 5.2997076 5.26315789 0 2.90676185-2.37275991 5.26315791-5.2997076 5.26315791-2.92694768 0-5.2997076-2.35639606-5.2997076-5.26315791 0-2.90676184 2.37275992-5.26315789 5.2997076-5.26315789z"/></clipPath><clipPath id="c"><path d="m5.2997076 0c2.92694769 0 5.2997076 2.35639605 5.2997076 5.26315789 0 2.90676185-2.37275991 5.26315791-5.2997076 5.26315791-2.92694768 0-5.2997076-2.35639606-5.2997076-5.26315791 0-2.90676184 2.37275992-5.26315789 5.2997076-5.26315789z"/></clipPath><clipPath id="d"><path d="m10.3874269 0v5.01898582c0 2.92534388-2.37145977 5.29680368-5.29680365 5.29680368h-5.09062325v-10.3157895z"/></clipPath><clipPath id="e"><path d="m10.3874269 0v10.3157895h-10.3874269v-5.01898585c0-2.92534388 2.37145977-5.29680365 5.29680365-5.29680365z"/></clipPath><clipPath id="f"><path d="m4.34400464 0v8.82194849h.14675691c.21524347-.85405002.70932508-1.55281822 1.48224483-2.09630459.77291974-.54348638 1.65835312-.81522957 2.65630013-.81522957 1.95675889 0 3.43411179.67935797 4.43205879 2.03807391s1.4969205 3.33855916 1.4969205 5.93952966-.4989735 4.5856663-1.4969205 5.9540874c-.997947 1.368421-2.4752999 2.0526315-4.43205879 2.0526315-.5087573 0-.98816322-.0727883-1.43821775-.218365-.45005454-.1455767-.856082-.3493841-1.21808238-.6114222-.36200039-.2620381-.67018991-.5726017-.92456856-.9316909s-.44027074-.7424412-.55767627-1.150056h-.14675691v2.56215h-4.34400464v-21.5453527zm2.84708412 9.40425532c-.82183872 0-1.50181242.19895483-2.0399211.59686448-.53810868.3979097-.80716302.9462486-.80716302 1.6450168v4.512878c0 .6987682.26905434 1.2471071.80716302 1.6450168.53810868.3979096 1.21808238.5968645 2.0399211.5968645.82183871 0 1.50181241-.2863009 2.03992109-.8589026.53810869-.5726017.80716305-1.3441583.80716305-2.3146697v-2.6494961c0-.9705113-.26905436-1.7420679-.80716305-2.3146696-.53810868-.57260172-1.21808238-.85890258-2.03992109-.85890258z"/></clipPath><clipPath id="g"><path d="m7.22044014 0c1.13492013 0 2.14754283.18439716 3.03786806.55319149.8903253.36879433 1.6436775.89772303 2.2600565 1.58678611.6163791.68906309 1.0908931 1.52855543 1.4235421 2.51847705.332649.98992161.4989735 2.09630459.4989735 3.31914893 0 1.22284435-.1663245 2.32922732-.4989735 3.31914892s-.807163 1.8342665-1.4235421 2.5330347c-.616379.6987682-1.3697312 1.2325495-2.2600565 1.6013438-.89032523.3687943-1.90294793.5531915-3.03786806.5531915s-2.14754283-.1843972-3.03786811-.5531915c-.89032527-.3687943-1.64367743-.9025756-2.26005646-1.6013438-.61637904-.6987682-1.09089306-1.5431131-1.42354206-2.5330347-.33264901-.9899216-.49897351-2.09630457-.49897351-3.31914892 0-1.22284434.1663245-2.32922732.49897351-3.31914893.332649-.98992162.80716302-1.82941396 1.42354206-2.51847705.61637903-.68906308 1.36973119-1.21799178 2.26005646-1.58678611.89032528-.36879433 1.90294798-.55319149 3.03786811-.55319149zm0 3.40649496c-.86097389 0-1.5262719.26203807-1.99589402.78611422-.46962213.52407615-.70443319 1.27136992-.70443319 2.2418813v3.11534155c0 .97051137.23481106 1.71780517.70443319 2.24188127.46962212.5240762 1.13492013.7861142 1.99589402.7861142s1.5262719-.262038 1.99589402-.7861142c.46962213-.5240761.70443319-1.2713699.70443319-2.24188127v-3.11534155c0-.97051138-.23481106-1.71780515-.70443319-2.2418813-.46962212-.52407615-1.13492013-.78611422-1.99589402-.78611422z"/></clipPath><clipPath id="h"><path d="m4.34400464 0v18.1970885h1.93719125v3.3482642h-1.96654264c-1.48713672 0-2.57802977-.3590892-3.27267916-1.0772676s-1.04197409-1.7566256-1.04197409-3.1153415v-17.3527436z"/></clipPath><clipPath id="i"><path d="m14.5582858 0v21.5453527h-4.3440046v-2.56215h-.1467569c-.11740557.4076148-.30329766.7909668-.55767631 1.150056s-.56256817.6696528-.92456855.9316909c-.36200039.2620381-.77291975.4658455-1.23275808.6114222s-.93435235.218365-1.42354206.218365c-1.95675884 0-3.43411177-.6842105-4.43205878-2.0526315-.99794701-1.3684211-1.49692052-3.3531169-1.49692052-5.9540874s.49897351-4.58081372 1.49692052-5.93952966 2.47529994-2.03807391 4.43205878-2.03807391c.99794701 0 1.88338039.27174319 2.65630014.81522957.77291974.54348637 1.26700135 1.24225457 1.48224486 2.09630459h.1467569v-8.82194849zm-7.19108875 9.40425532c-.82183871 0-1.50181241.28630086-2.03992109.85890258-.53810869.5726017-.80716303 1.3441583-.80716303 2.3146696v2.6494961c0 .9705114.26905434 1.742068.80716303 2.3146697.53810868.5726017 1.21808238.8589026 2.03992109.8589026.82183872 0 1.50181242-.1989549 2.0399211-.5968645.53810868-.3979097.80716305-.9462486.80716305-1.6450168v-4.512878c0-.6987682-.26905437-1.2471071-.80716305-1.6450168-.53810868-.39790965-1.21808238-.59686448-2.0399211-.59686448z"/></clipPath><clipPath id="j"><path d="m8.62930651 0c1.95675889 0 3.43411179.67935797 4.43205879 2.03807391s1.4969205 3.33855916 1.4969205 5.93952967c0 2.60097052-.4989735 4.58566632-1.4969205 5.95408732-.997947 1.3684211-2.4752999 2.0526316-4.43205879 2.0526316-.5087573 0-.98816322-.0727883-1.43821775-.2183651-.45005454-.1455767-.856082-.3493841-1.21808238-.6114221-.36200039-.2620381-.67018991-.5726017-.92456856-.931691-.25437865-.3590892-.44027074-.7424412-.55767627-1.1500559h-.14675691v8.3852183h-4.34400464v-21.1086226h4.34400464v2.56215005h.14675691c.21524347-.85405001.70932508-1.55281821 1.48224483-2.09630459.77291974-.54348637 1.65835312-.81522956 2.65630013-.81522956zm-1.43821775 3.49384099c-.82183872 0-1.50181242.19895483-2.0399211.5968645-.53810868.39790966-.80716302.9462486-.80716302 1.64501679v4.51287792c0 .6987682.26905434 1.2471072.80716302 1.6450168.53810868.3979097 1.21808238.5968645 2.0399211.5968645.82183871 0 1.50181241-.2863008 2.03992109-.8589026.53810869-.5726017.80716305-1.3441582.80716305-2.31466961v-2.64949608c0-.97051138-.26905436-1.74206793-.80716305-2.31466965-.53810868-.57260172-1.21808238-.85890257-2.03992109-.85890257z"/></clipPath><clipPath id="k"><path d="m4.34400464 0v3.31914894h.14675691c.07827035-.42702501.21524347-.83949235.41091936-1.23740202.19567588-.39790967.45494643-.75214632.77781164-1.06270997.32286521-.31056364.70932508-.55804404 1.15937962-.7424412.45005453-.18439717.97837942-.27659575 1.58497466-.27659575h.76313595v4.01791713h-1.08600116c-1.27189325 0-2.21602939.16498694-2.83240843.49496081-.61637903.32997387-.92456855.94139604-.92456855 1.83426652v8.93840984h-4.34400464v-15.2855543z"/></clipPath><clipPath id="l"><path d="m7.22044014 0c1.13492013 0 2.14754283.18439716 3.03786806.55319149.8903253.36879433 1.6436775.89772303 2.2600565 1.58678611.6163791.68906309 1.0908931 1.52855543 1.4235421 2.51847705.332649.98992161.4989735 2.09630459.4989735 3.31914893 0 1.22284435-.1663245 2.32922732-.4989735 3.31914892s-.807163 1.8342665-1.4235421 2.5330347c-.616379.6987682-1.3697312 1.2325495-2.2600565 1.6013438-.89032523.3687943-1.90294793.5531915-3.03786806.5531915s-2.14754283-.1843972-3.03786811-.5531915c-.89032527-.3687943-1.64367743-.9025756-2.26005646-1.6013438-.61637904-.6987682-1.09089306-1.5431131-1.42354206-2.5330347-.33264901-.9899216-.49897351-2.09630457-.49897351-3.31914892 0-1.22284434.1663245-2.32922732.49897351-3.31914893.332649-.98992162.80716302-1.82941396 1.42354206-2.51847705.61637903-.68906308 1.36973119-1.21799178 2.26005646-1.58678611.89032528-.36879433 1.90294798-.55319149 3.03786811-.55319149zm0 3.40649496c-.86097389 0-1.5262719.26203807-1.99589402.78611422-.46962213.52407615-.70443319 1.27136992-.70443319 2.2418813v3.11534155c0 .97051137.23481106 1.71780517.70443319 2.24188127.46962212.5240762 1.13492013.7861142 1.99589402.7861142s1.5262719-.262038 1.99589402-.7861142c.46962213-.5240761.70443319-1.2713699.70443319-2.24188127v-3.11534155c0-.97051138-.23481106-1.71780515-.70443319-2.2418813-.46962212-.52407615-1.13492013-.78611422-1.99589402-.78611422z"/></clipPath><clipPath id="m"><path d="m2.58292168 0c.88054148 0 1.53116379.21836506 1.95186694.65509519.42070316.43673012.63105473.99477416.63105473 1.67413213v.58230683c0 .67935797-.21035157 1.23740202-.63105473 1.67413214-.42070315.43673013-1.07132546.65509519-1.95186694.65509519s-1.5311638-.21836506-1.95186695-.65509519c-.42070315-.43673012-.63105473-.99477417-.63105473-1.67413214v-.58230683c0-.67935797.21035158-1.23740201.63105473-1.67413213.42070315-.43673013 1.07132547-.65509519 1.95186695-.65509519z"/></clipPath><g clip-path="url(#a)" transform="translate(-29 -11)"><g transform="translate(29 11)"><g clip-path="url(#b)" transform="translate(12.50731)"><path d="m0 0h10.5994152v10.5263158h-10.5994152z" fill="#5e3bc3"/></g><g clip-path="url(#c)" transform="translate(0 12.631579)"><path d="m0 0h10.5994152v10.5263158h-10.5994152z" fill="#ffae3c"/></g><g clip-path="url(#d)" transform="translate(12.719298 12.842105)"><path d="m0 0h10.3874269v10.3157895h-10.3874269z" fill="#46b8c3"/></g><g clip-path="url(#e)"><path d="m0 0h10.3874269v10.3157895h-10.3874269z" fill="#ee5d5d"/></g><g transform="translate(31.586257 .631579)"><g clip-path="url(#f)"><path d="m0 0h14.5582858v21.8947368h-14.5582858z" fill="#050056"/></g><g clip-path="url(#g)" transform="translate(16.877045 5.910414)"><path d="m0 0h14.4408803v15.9843225h-14.4408803z" fill="#050056"/></g><g clip-path="url(#h)" transform="translate(34.399821)"><path d="m0 0h6.28119589v21.5453527h-6.28119589z" fill="#050056"/></g><g clip-path="url(#i)" transform="translate(42.530154)"><path d="m0 0h14.5582858v21.8947368h-14.5582858z" fill="#050056"/></g><g clip-path="url(#j)" transform="translate(70.237859 5.910414)"><path d="m0 0h14.5582858v21.4580067h-14.5582858z" fill="#050056"/></g><g clip-path="url(#k)" transform="translate(88.083499 6.259798)"><path d="m0 0h9.18698278v15.2855543h-9.18698278z" fill="#050056"/></g><g clip-path="url(#l)" transform="translate(98.972862 5.910414)"><path d="m0 0h14.4408803v15.9843225h-14.4408803z" fill="#050056"/></g></g><g clip-path="url(#m)" transform="translate(92.666485 17.045913)"><path d="m0 0h5.16584335v5.24076148h-5.16584335z" fill="#050056"/></g></g></g></svg>